<svg xmlns="http://www.w3.org/2000/svg" width="478" height="268" viewBox="0 0 478 268" fill="none">
  <g opacity="0.2">
    <path d="M366.942 710.318C404.765 667.223 433.993 617.332 452.958 563.493C471.922 509.654 480.252 452.921 477.47 396.534C474.689 340.146 460.851 285.209 436.747 234.858C412.643 184.507 378.745 139.728 336.988 103.079C295.232 66.43 246.434 38.6278 193.381 21.2599C140.329 3.89196 84.0603 -2.70147 27.7887 1.85603C-28.4829 6.41352 -83.6557 22.0327 -134.579 47.8218C-185.503 73.6108 -231.181 109.065 -269.004 152.159L48.9689 431.238L366.942 710.318Z" fill="url(#paint0_linear_1_1554)" fill-opacity="0.3"/>
    <path d="M358.748 703.126C395.596 661.142 424.071 612.537 442.547 560.085C461.023 507.633 469.137 452.362 466.428 397.428C463.718 342.494 450.237 288.972 426.754 239.919C403.271 190.865 370.247 147.241 329.566 111.536C288.885 75.8313 241.345 48.7456 189.66 31.8252C137.974 14.9049 83.1559 8.48136 28.3344 12.9214C-26.4871 17.3615 -80.2381 32.5781 -129.85 57.7026C-179.461 82.8271 -223.961 117.367 -260.81 159.351L48.9689 431.238L358.748 703.126Z" fill="url(#paint1_linear_1_1554)" fill-opacity="0.3"/>
  </g>
  <defs>
    <linearGradient id="paint0_linear_1_1554" x1="336.988" y1="103.079" x2="208.415" y2="228.978" gradientUnits="userSpaceOnUse">
      <stop stop-color="#800080"/>
      <stop offset="1" stop-color="#FF864C" stop-opacity="0.27"/>
    </linearGradient>
    <linearGradient id="paint1_linear_1_1554" x1="336.988" y1="103.079" x2="208.415" y2="228.978" gradientUnits="userSpaceOnUse">
      <stop stop-color="#800080"/>
      <stop offset="1" stop-color="#FF864C" stop-opacity="0.27"/>
    </linearGradient>
  </defs>
</svg>