<svg xmlns="http://www.w3.org/2000/svg" width="17" height="17" viewBox="0 0 17 17" fill="none">
  <path d="M15.6147 8.50007L16.5347 6.91007C16.6453 6.71877 16.6754 6.49139 16.6183 6.27793C16.5613 6.06446 16.4218 5.88238 16.2305 5.77174L14.6389 4.85174V3.0184C14.6389 2.79739 14.5511 2.58543 14.3948 2.42915C14.2385 2.27287 14.0266 2.18507 13.8055 2.18507H11.973L11.0539 0.594235C10.9434 0.402844 10.7615 0.26316 10.548 0.205902C10.4423 0.17757 10.332 0.170347 10.2235 0.184645C10.115 0.198944 10.0103 0.234484 9.91555 0.289235L8.32388 1.20923L6.73221 0.288402C6.54081 0.1779 6.31336 0.147954 6.09988 0.205152C5.8864 0.262351 5.70439 0.402008 5.59388 0.593402L4.67388 2.18507H2.84138C2.62036 2.18507 2.4084 2.27287 2.25212 2.42915C2.09584 2.58543 2.00804 2.79739 2.00804 3.0184V4.8509L0.416378 5.7709C0.321568 5.82569 0.238486 5.89863 0.171881 5.98554C0.105276 6.07246 0.0564543 6.17165 0.028206 6.27745C-4.22789e-05 6.38324 -0.00716279 6.49357 0.0072514 6.60212C0.0216656 6.71067 0.0573318 6.81531 0.112211 6.91007L1.03221 8.50007L0.112211 10.0901C0.00220207 10.2815 -0.0276452 10.5088 0.0291768 10.7221C0.0859988 10.9355 0.224882 11.1178 0.415545 11.2292L2.00721 12.1492V13.9817C2.00721 14.2027 2.09501 14.4147 2.25129 14.571C2.40757 14.7273 2.61953 14.8151 2.84055 14.8151H4.67388L5.59388 16.4067C5.66765 16.5329 5.77299 16.6376 5.89953 16.7106C6.02606 16.7837 6.16944 16.8226 6.31555 16.8234C6.46055 16.8234 6.60471 16.7851 6.73305 16.7109L8.32304 15.7909L9.91471 16.7109C10.106 16.8215 10.3334 16.8515 10.5469 16.7945C10.7603 16.7375 10.9424 16.598 11.053 16.4067L11.9722 14.8151H13.8047C14.0257 14.8151 14.2377 14.7273 14.394 14.571C14.5502 14.4147 14.638 14.2027 14.638 13.9817V12.1492L16.2297 11.2292C16.3245 11.1744 16.4076 11.1015 16.4742 11.0146C16.5408 10.9277 16.5896 10.8285 16.6179 10.7227C16.6461 10.6169 16.6533 10.5066 16.6388 10.398C16.6244 10.2895 16.5888 10.1848 16.5339 10.0901L15.6147 8.50007ZM6.23971 4.32507C6.57134 4.32518 6.88935 4.45703 7.12377 4.6916C7.35819 4.92618 7.48982 5.24427 7.48971 5.5759C7.4896 5.90753 7.35776 6.22554 7.12318 6.45996C6.8886 6.69438 6.57051 6.82601 6.23888 6.8259C5.90725 6.82579 5.58924 6.69395 5.35482 6.45937C5.1204 6.22479 4.98877 5.9067 4.98888 5.57507C4.98899 5.24344 5.12083 4.92543 5.35541 4.69101C5.58999 4.45659 5.90808 4.32496 6.23971 4.32507ZM6.48971 12.3251L5.15638 11.3259L10.1564 4.65924L11.4897 5.6584L6.48971 12.3251ZM10.4064 12.6584C10.2422 12.6583 10.0796 12.6259 9.9279 12.5631C9.77621 12.5002 9.6384 12.408 9.52232 12.2919C9.40625 12.1757 9.31419 12.0378 9.2514 11.8861C9.18861 11.7344 9.15632 11.5718 9.15638 11.4076C9.15643 11.2434 9.18883 11.0808 9.25172 10.9291C9.31461 10.7774 9.40676 10.6396 9.52291 10.5235C9.63906 10.4074 9.77694 10.3154 9.92867 10.2526C10.0804 10.1898 10.243 10.1575 10.4072 10.1576C10.7388 10.1577 11.0568 10.2895 11.2913 10.5241C11.5257 10.7587 11.6573 11.0768 11.6572 11.4084C11.6571 11.74 11.5253 12.058 11.2907 12.2925C11.0561 12.5269 10.738 12.6585 10.4064 12.6584Z" fill="black"/>
</svg>