<svg xmlns="http://www.w3.org/2000/svg" width="24" height="24" viewBox="0 0 24 24" fill="none">
  <path d="M18.5301 12.5299C18.6698 12.3889 18.7482 12.1984 18.7482 11.9999C18.7482 11.8014 18.6698 11.6109 18.5301 11.4699L13.5301 6.46991C13.4614 6.39622 13.3786 6.33712 13.2866 6.29613C13.1946 6.25514 13.0953 6.2331 12.9946 6.23132C12.8939 6.22954 12.7939 6.24807 12.7005 6.28579C12.6071 6.32351 12.5222 6.37965 12.451 6.45087C12.3798 6.52209 12.3237 6.60692 12.2859 6.70031C12.2482 6.7937 12.2297 6.89373 12.2315 6.99443C12.2332 7.09513 12.2553 7.19445 12.2963 7.28645C12.3373 7.37845 12.3964 7.46125 12.4701 7.52991L16.1901 11.2499H6.00006C5.80115 11.2499 5.61038 11.3289 5.46973 11.4696C5.32908 11.6102 5.25006 11.801 5.25006 11.9999C5.25006 12.1988 5.32908 12.3896 5.46973 12.5302C5.61038 12.6709 5.80115 12.7499 6.00006 12.7499H16.1901L12.4701 16.4699C12.3376 16.6121 12.2655 16.8001 12.2689 16.9944C12.2723 17.1887 12.351 17.3741 12.4884 17.5115C12.6259 17.6489 12.8112 17.7277 13.0055 17.7311C13.1998 17.7345 13.3879 17.6624 13.5301 17.5299L18.5301 12.5299Z" fill="#800080"/>
</svg>