<svg xmlns="http://www.w3.org/2000/svg" width="34" height="35" viewBox="0 0 34 35" fill="none">
  <path d="M18.5255 1.5255C17.8693 0.869077 16.9792 0.500198 16.051 0.5H3.5C2.57174 0.5 1.6815 0.868749 1.02513 1.52513C0.368749 2.1815 0 3.07174 0 4V16.551C0.000198231 17.4792 0.369077 18.3693 1.0255 19.0255L15.0255 33.0255C15.6818 33.6816 16.5719 34.0503 17.5 34.0503C18.4281 34.0503 19.3182 33.6816 19.9745 33.0255L32.5255 20.4745C33.1816 19.8182 33.5503 18.9281 33.5503 18C33.5503 17.0719 33.1816 16.1818 32.5255 15.5255L18.5255 1.5255ZM8.75 12.75C7.82151 12.7498 6.93114 12.3807 6.27476 11.724C5.61839 11.0673 5.24977 10.1767 5.25 9.24825C5.25023 8.31976 5.6193 7.42939 6.276 6.77301C6.93271 6.11664 7.82326 5.74802 8.75175 5.74825C9.68024 5.74848 10.5706 6.11755 11.227 6.77425C11.8834 7.43096 12.252 8.32151 12.2518 9.25C12.2515 10.1785 11.8825 11.0689 11.2257 11.7252C10.569 12.3816 9.67849 12.7502 8.75 12.75Z" fill="url(#paint0_linear_1_1581)"/>
  <defs>
    <linearGradient id="paint0_linear_1_1581" x1="0.348282" y1="0.5" x2="39.2415" y2="7.09443" gradientUnits="userSpaceOnUse">
      <stop stop-color="#B1B1B1"/>
      <stop offset="0.0852" stop-color="#BDBDBD"/>
      <stop offset="0.2551" stop-color="#EBE6E6"/>
      <stop offset="0.431" stop-color="white"/>
      <stop offset="0.621" stop-color="#F0F0F0"/>
      <stop offset="0.8216" stop-color="#CBCBCB"/>
      <stop offset="1" stop-color="#BEBEBE"/>
    </linearGradient>
  </defs>
</svg>