<svg xmlns="http://www.w3.org/2000/svg" width="46" height="45" viewBox="0 0 46 45" fill="none">
  <g opacity="0.9">
    <path fill-rule="evenodd" clip-rule="evenodd" d="M41.7486 18.7496H4.25V31.8741C4.25 33.3658 4.84261 34.7965 5.89746 35.8514C6.95231 36.9062 8.383 37.4988 9.87478 37.4988H36.1238C37.6156 37.4988 39.0462 36.9062 40.1011 35.8514C41.1559 34.7965 41.7486 33.3658 41.7486 31.8741V18.7496ZM20.3481 26.2493L20.5731 26.0224C20.9149 25.669 21.1042 25.1956 21.1003 24.7039C21.0964 24.2123 20.8995 23.7419 20.5522 23.3941C20.2048 23.0462 19.7347 22.8487 19.2431 22.8441C18.7514 22.8394 18.2777 23.0281 17.9238 23.3694L14.4946 26.7986C14.1431 27.1502 13.9457 27.627 13.9457 28.1242C13.9457 28.6214 14.1431 29.0982 14.4946 29.4498L17.9238 32.8771C18.0968 33.0562 18.3037 33.1991 18.5324 33.2973C18.7612 33.3956 19.0072 33.4473 19.2562 33.4495C19.5051 33.4516 19.752 33.4042 19.9824 33.3099C20.2129 33.2156 20.4222 33.0764 20.5982 32.9004C20.7743 32.7243 20.9135 32.515 21.0078 32.2846C21.102 32.0542 21.1495 31.8073 21.1473 31.5583C21.1452 31.3094 21.0934 31.0633 20.9952 30.8346C20.8969 30.6058 20.7541 30.399 20.575 30.226L20.3481 29.9991H28.6241C29.1213 29.9991 29.5982 29.8016 29.9498 29.45C30.3014 29.0984 30.499 28.6215 30.499 28.1242C30.499 27.6269 30.3014 27.15 29.9498 26.7984C29.5982 26.4468 29.1213 26.2493 28.6241 26.2493H20.3481ZM9.87478 7.5C8.383 7.5 6.95231 8.09261 5.89746 9.14746C4.84261 10.2023 4.25 11.633 4.25 13.1248V14.9997H41.7486V13.1248C41.7486 11.633 41.1559 10.2023 40.1011 9.14746C39.0462 8.09261 37.6156 7.5 36.1238 7.5H9.87478Z" fill="url(#paint0_linear_1_1584)"/>
  </g>
  <defs>
    <linearGradient id="paint0_linear_1_1584" x1="4.63927" y1="7.5" x2="47.4368" y2="16.5705" gradientUnits="userSpaceOnUse">
      <stop stop-color="#B1B1B1"/>
      <stop offset="0.0852" stop-color="#BDBDBD"/>
      <stop offset="0.2551" stop-color="#EBE6E6"/>
      <stop offset="0.431" stop-color="white"/>
      <stop offset="0.621" stop-color="#F0F0F0"/>
      <stop offset="0.8216" stop-color="#CBCBCB"/>
      <stop offset="1" stop-color="#BEBEBE"/>
    </linearGradient>
  </defs>
</svg>