<svg xmlns="http://www.w3.org/2000/svg" width="42" height="42" viewBox="0 0 42 42" fill="none">
  <g opacity="0.9">
    <path d="M22.0255 4.5255C21.3693 3.86908 20.4792 3.5002 19.551 3.5H7C6.07174 3.5 5.1815 3.86875 4.52513 4.52513C3.86875 5.1815 3.5 6.07174 3.5 7V19.551C3.5002 20.4792 3.86908 21.3693 4.5255 22.0255L18.5255 36.0255C19.1818 36.6816 20.0719 37.0503 21 37.0503C21.9281 37.0503 22.8182 36.6816 23.4745 36.0255L36.0255 23.4745C36.6816 22.8182 37.0503 21.9281 37.0503 21C37.0503 20.0719 36.6816 19.1818 36.0255 18.5255L22.0255 4.5255ZM12.25 15.75C11.3215 15.7498 10.4311 15.3807 9.77476 14.724C9.11839 14.0673 8.74977 13.1767 8.75 12.2483C8.75023 11.3198 9.1193 10.4294 9.776 9.77301C10.4327 9.11664 11.3233 8.74802 12.2517 8.74825C13.1802 8.74848 14.0706 9.11755 14.727 9.77425C15.3834 10.431 15.752 11.3215 15.7518 12.25C15.7515 13.1785 15.3825 14.0689 14.7257 14.7252C14.069 15.3816 13.1785 15.7502 12.25 15.75Z" fill="#800080"/>
  </g>
</svg>