<svg xmlns="http://www.w3.org/2000/svg" width="45" height="45" viewBox="0 0 45 45" fill="none">
  <g opacity="0.9">
    <path fill-rule="evenodd" clip-rule="evenodd" d="M41.2486 18.7496H3.75V31.8741C3.75 33.3658 4.34261 34.7965 5.39746 35.8514C6.45231 36.9062 7.883 37.4988 9.37478 37.4988H35.6238C37.1156 37.4988 38.5462 36.9062 39.6011 35.8514C40.6559 34.7965 41.2486 33.3658 41.2486 31.8741V18.7496ZM19.8481 26.2493L20.0731 26.0224C20.4149 25.669 20.6042 25.1956 20.6003 24.7039C20.5964 24.2123 20.3995 23.7419 20.0522 23.3941C19.7048 23.0462 19.2347 22.8487 18.7431 22.8441C18.2514 22.8394 17.7777 23.0281 17.4238 23.3694L13.9946 26.7986C13.6431 27.1502 13.4457 27.627 13.4457 28.1242C13.4457 28.6214 13.6431 29.0982 13.9946 29.4498L17.4238 32.8771C17.5968 33.0562 17.8037 33.1991 18.0324 33.2973C18.2612 33.3956 18.5072 33.4473 18.7562 33.4495C19.0051 33.4516 19.252 33.4042 19.4824 33.3099C19.7129 33.2156 19.9222 33.0764 20.0982 32.9004C20.2743 32.7243 20.4135 32.515 20.5078 32.2846C20.602 32.0542 20.6495 31.8073 20.6473 31.5583C20.6452 31.3094 20.5934 31.0633 20.4952 30.8346C20.3969 30.6058 20.2541 30.399 20.075 30.226L19.8481 29.9991H28.1241C28.6213 29.9991 29.0982 29.8016 29.4498 29.45C29.8014 29.0984 29.999 28.6215 29.999 28.1242C29.999 27.6269 29.8014 27.15 29.4498 26.7984C29.0982 26.4468 28.6213 26.2493 28.1241 26.2493H19.8481ZM9.37478 7.5C7.883 7.5 6.45231 8.09261 5.39746 9.14746C4.34261 10.2023 3.75 11.633 3.75 13.1248V14.9997H41.2486V13.1248C41.2486 11.633 40.6559 10.2023 39.6011 9.14746C38.5462 8.09261 37.1156 7.5 35.6238 7.5H9.37478Z" fill="#800080" fill-opacity="0.87"/>
  </g>
</svg>